<svg width="313" height="383" viewBox="0 0 313 383" fill="none" xmlns="http://www.w3.org/2000/svg">
<path d="M162.318 127.641L161.725 121.111C161.528 118.949 164.433 118.067 165.472 119.972L169.672 127.673C169.782 127.875 169.994 128 170.223 128C170.57 128 170.851 127.719 170.851 127.373V122.5V115.091C170.851 114.705 170.739 114.328 170.53 114.004L168.053 110.176C167.35 109.09 168.568 107.787 169.699 108.416C169.8 108.472 169.892 108.541 169.974 108.623L173.225 111.874C173.589 112.238 174.159 112.295 174.587 112.009C175.027 111.716 175.19 111.146 174.971 110.664L172.968 106.257C172.89 106.087 172.786 105.93 172.658 105.794L169.636 102.571C168.854 101.737 169.848 100.453 170.851 101L179.247 105.665C179.604 105.863 180.05 105.801 180.339 105.512C180.639 105.212 180.694 104.745 180.472 104.384L177.073 98.8613C176.927 98.6231 176.732 98.4183 176.501 98.2601L159.535 86.6262C159.413 86.5425 159.279 86.4774 159.138 86.4328L157.003 85.7585C155.742 85.3604 156.029 83.5 157.351 83.5H158.669C159.568 83.5 160.081 82.4739 159.542 81.7549C159.417 81.5885 159.247 81.4612 159.052 81.3881L151.351 78.5L131.851 73.5L116.088 69.0667C115.93 69.0224 115.779 68.959 115.637 68.8778L109.312 65.2635C109.01 65.0908 108.668 65 108.32 65H92.5704C92.4244 65 92.279 65.016 92.1365 65.0476L83.6417 66.9354C83.4488 66.9782 83.2634 67.0494 83.0914 67.1466L72.3088 73.2411C72.0086 73.4108 71.6696 73.5 71.3247 73.5H67.5869C66.8294 73.5 66.1368 73.928 65.798 74.6056L64.4036 77.3944C64.0648 78.072 63.3723 78.5 62.6148 78.5H57.8508C56.7463 78.5 55.8508 79.3954 55.8508 80.5V82.2639C55.8508 83.0215 55.4228 83.714 54.7453 84.0528L53.8508 84.5L45.4218 90.1194C45.0517 90.3661 44.7745 90.7291 44.6338 91.151L41.8958 99.3652C41.8658 99.4549 41.8423 99.5467 41.8254 99.6398L39.8831 110.323C39.8616 110.441 39.8508 110.56 39.8508 110.68V122.5L41.8116 137.696C41.8376 137.898 41.8941 138.094 41.9793 138.278L47.762 150.808C47.8211 150.936 47.8934 151.057 47.978 151.17L53.7426 158.856C53.8146 158.952 53.8778 159.054 53.9315 159.161L60.1397 171.578C60.2785 171.855 60.3508 172.162 60.3508 172.472V181.528C60.3508 181.838 60.4231 182.145 60.562 182.422L61.5989 184.496C61.7636 184.826 61.8342 185.194 61.8027 185.561L60.4132 201.773C60.3729 202.242 60.168 202.683 59.8347 203.016L55.9513 206.899C55.8844 206.966 55.8223 207.038 55.7655 207.114L51.3508 213L36.9478 229.39C36.8832 229.463 36.8242 229.541 36.771 229.623L31.4503 237.846C31.3841 237.949 31.3274 238.057 31.2809 238.169L12.4152 283.844C12.3724 283.948 12.3383 284.055 12.3135 284.164L9.85083 295L4.85083 326.5L1.00534 379.856C0.921863 381.014 1.83898 382 3.00017 382H144.98C146.033 382 146.905 381.184 146.975 380.133L148.351 359.5L146.851 334L142.351 295L138.851 278.5L132.351 259.5L130.952 254.372C130.885 254.126 130.866 253.87 130.895 253.617L132.323 241.244C132.341 241.082 132.34 240.918 132.319 240.756L130.851 229.5V224.325C130.851 224.11 130.885 223.896 130.953 223.692L132.351 219.5L133.059 216.313C133.236 215.519 132.914 214.697 132.245 214.235L127.318 210.824C127.013 210.613 126.777 210.316 126.64 209.972C126.22 208.923 126.81 207.742 127.902 207.448L138.656 204.552C138.786 204.518 138.911 204.47 139.031 204.41L153.148 197.351C153.6 197.125 153.949 196.737 154.127 196.265L155.351 193L157.351 187L159.248 181.308C159.316 181.104 159.351 180.89 159.351 180.675V173V169.448C159.351 168.848 159.62 168.28 160.084 167.9L164.851 164L165.832 163.019C166.44 162.411 166.591 161.481 166.206 160.711L163.351 155L159.541 146.905C159.416 146.638 159.351 146.347 159.351 146.053V140.228C159.351 140.076 159.368 139.926 159.402 139.778L160.851 133.5L162.256 128.348C162.319 128.118 162.34 127.878 162.318 127.641Z" fill="#F5F5F5" stroke="#CCCCCC" stroke-width="2"/>
<path fill-rule="evenodd" clip-rule="evenodd" d="M58.0231 202.984C58.3519 202.448 59.0615 202.295 59.5817 202.648L65.6364 205.812C65.7381 205.866 65.8353 205.927 65.9264 205.997L92.0534 226L137.3 269.993C137.379 270.07 137.451 270.153 137.516 270.241L137.851 270.695V270.5L139.851 270H143.851L144.851 270.5V278H145.851V281H146.851L147.851 271V269L144.851 251H142.851V232H144.851V248H147.851V251L150.851 269V271L149.851 281V284H145.851V287H140.851L137.851 275V274.395C137.729 274.339 137.615 274.262 137.518 274.165L117.363 253.892L92.3327 230.798C92.1484 230.628 91.9336 230.494 91.6999 230.403L88.8463 229.296C88.7563 229.261 88.6687 229.219 88.5846 229.172L65.7897 216.27L57.6715 211.729L55.7799 210.767C54.7404 210.237 54.3731 208.933 54.9831 207.938L58.0231 202.984Z" fill="#888888"/>
<path d="M138.851 262V222H142.851V223H144.851V232.588V238H142.851V242V262H138.851Z" fill="black"/>
<path fill-rule="evenodd" clip-rule="evenodd" d="M130.351 105.5L156.851 107.5L163.351 108.5V118.5L162.851 124.5L155.851 123.5L129.851 121.5L103.351 120.5L76.3508 121.5L48.8508 123.5L42.8508 124.5L40.3508 125.5L39.8508 119.5L40.3508 111L48.8508 108.5L76.3508 106L102.851 105L130.351 105.5Z" fill="#D8D8D8"/>
<path d="M168.851 70H170.851V89H168.851V70Z" fill="#888888"/>
<path d="M170.851 86H173.851V89L176.851 107V109L175.851 119V122H169.851V124.5H161.851L162.351 113V108.5H166.351H167.851L168.851 109V116H169.851V119H172.851L173.851 109V107L170.851 89L170.851 86Z" fill="#888888"/>
<path d="M164.851 60V100H168.851V99H170.851V89.4118V84H168.851V80V60H164.851Z" fill="black"/>
<path d="M144.851 226L286.851 139V317L144.851 235V226Z" fill="url(#paint0_linear_2165_284)"/>
<path d="M170.851 87L312.851 0V178L170.851 96V87Z" fill="url(#paint1_linear_2165_284)"/>
<defs>
<linearGradient id="paint0_linear_2165_284" x1="144.851" y1="228" x2="286.851" y2="228" gradientUnits="userSpaceOnUse">
<stop stop-color="#FFE94D"/>
<stop offset="1" stop-color="#FBF9EC" stop-opacity="0"/>
</linearGradient>
<linearGradient id="paint1_linear_2165_284" x1="170.851" y1="89" x2="312.851" y2="89" gradientUnits="userSpaceOnUse">
<stop stop-color="#FFE94D"/>
<stop offset="1" stop-color="#FBF9EC" stop-opacity="0"/>
</linearGradient>
</defs>
</svg>
