<?xml version="1.0" encoding="utf-8"?>
<svg viewBox="261.5 322.199951171875 338.39996337890625 242.4000244140625" width="338.39996337890625" height="242.4000244140625" xmlns="http://www.w3.org/2000/svg"><g transform="matrix(1, 0, 0, 1, 5.684341886080802e-14, 0)">
		<g>
			<path class="st9" d="M261.5,564.6c0,0,110.5-70.8,147.8-106.1c0,0,7.6-7.4,19.6-1.9c0,0,16.2,12.4,69.7-19.8&#10;&#9;&#9;&#9;&#9;c0,0,8.2-5.2,25.2-4.2c0,0,36.7,0.3,35.3-17.7c0,0-0.8-17.7-41.3-6c0,0-23,7.8-27.2,3.8c0,0-6-12,5-22.5c0,0,18.5-9.7,18.7-22.5&#10;&#9;&#9;&#9;&#9;c0,0,22.7-13.5,22.7-18.7c0,0,23-5.2,26.8-9.5c0,0,21.7,1.5,26.3-9.8c0,0,1.7-7.3-8.5-5c0,0-6.3,0.9-9.7-0.5c0,0-7.8-2-15.1,2&#10;&#9;&#9;&#9;&#9;c0,0-8.9,3.4-19.4,1.8c0,0-9.6-2.1-14.6,5c0,0-24.4,21.1-36.4,24.6c0,0-10-0.4-13.6,5c0,0-65.9,46-84.9,52.3&#10;&#9;&#9;&#9;&#9;c0,0-14.3,6.7-26.7,14.7c0,0-16,9.2-28.2,13.5c0,0-27.5,12.7-41.2,21.9c0,0-19.8,9.9-30.2,11.5V564.6z" style="fill: rgb(204, 204, 204); opacity: 1;"/>
			<path class="st9" d="M541.6,344.3c0,0,26,8.5,27.3,9c0,0,7.5,1.7,9.5,5.7c0,0,14.2,10,18.3,13c0,0,3.2,7.5-6.7,9.2&#10;&#9;&#9;&#9;&#9;c0,0-7.6,1.8-20.6-11.8c0,0-15.9,0.3-26.2-6.5c0,0-15,10.8-33.5,4.8L541.6,344.3z" style="fill: rgb(204, 204, 204); opacity: 1;"/>
			<path class="st9" d="M519.1,353.4c0,0,64.6,22.5,60.5,30.4c0,0-2.4,8.9-14.4,3.1c0,0-12.4-6-13.2-9.4c0,0-10.6-1.3-20.9-6.4&#10;&#9;&#9;&#9;&#9;c0,0-9.2-1.5-13,2.7c0,0,14.4,3.8,16.6,6.6c0,0,5.6,6.4,13,10.4c0,0,5.6,2.4,1.2,7c0,0-5.2,4.8-11.8,0c0,0-12.8-10-16.5-9&#10;&#9;&#9;&#9;&#9;c0,0-17.1-0.4-22.6-4.4L519.1,353.4z" style="fill: rgb(204, 204, 204); opacity: 1;"/>
		</g>
		<path class="st10" d="M521.8,413.7c0,0,0.2,0.1,0.5,0.4c0.3,0.3,0.8,0.7,1.3,1.3c0.2,0.3,0.5,0.6,0.7,1c0.3,0.3,0.5,0.7,0.7,1.2&#10;&#9;&#9;&#9;c0.2,0.4,0.4,0.9,0.6,1.3c0.1,0.5,0.3,1,0.4,1.5c0.1,0.5,0.2,1,0.2,1.5c0,0.3,0,0.5,0,0.7c0,0.2-0.1,0.5-0.1,0.7&#10;&#9;&#9;&#9;c0,0.5-0.2,0.9-0.3,1.3c-0.1,0.2-0.1,0.4-0.2,0.6c-0.1,0.2-0.2,0.4-0.3,0.5c-0.2,0.3-0.3,0.6-0.5,0.9c-0.2,0.2-0.3,0.4-0.5,0.6&#10;&#9;&#9;&#9;c-0.3,0.3-0.4,0.5-0.4,0.5s0.1-0.2,0.3-0.6c0.1-0.2,0.2-0.4,0.3-0.7c0.1-0.3,0.2-0.6,0.3-0.9c0.1-0.2,0.1-0.3,0.2-0.5&#10;&#9;&#9;&#9;c0-0.2,0.1-0.4,0.1-0.6c0.1-0.4,0.2-0.8,0.2-1.2c0-0.2,0-0.4,0-0.7c0-0.2,0-0.4,0-0.7c0-0.5-0.1-0.9-0.2-1.4&#10;&#9;&#9;&#9;c-0.1-0.5-0.2-0.9-0.4-1.3c-0.2-0.4-0.3-0.9-0.5-1.3c-0.2-0.4-0.4-0.8-0.6-1.2c-0.2-0.4-0.4-0.7-0.6-1c-0.4-0.6-0.7-1.1-1-1.5&#10;&#9;&#9;&#9;C521.9,413.9,521.8,413.7,521.8,413.7z" style="fill: rgb(204, 204, 204); opacity: 1;"/>
		<path class="st10" d="M518.5,416.5c0,0,0.6,0.4,1.2,1.2c0.3,0.4,0.7,0.9,1,1.5c0.2,0.3,0.3,0.6,0.4,0.9c0.1,0.3,0.2,0.7,0.3,1&#10;&#9;&#9;&#9;c0.1,0.4,0.1,0.7,0.1,1.1c0,0.4,0,0.7-0.1,1c-0.1,0.3-0.1,0.7-0.3,0.9c-0.1,0.3-0.2,0.6-0.4,0.8c-0.1,0.2-0.3,0.4-0.4,0.6&#10;&#9;&#9;&#9;c-0.2,0.1-0.3,0.3-0.4,0.4c-0.2,0.2-0.4,0.3-0.4,0.3s0.1-0.2,0.2-0.4c0.1-0.1,0.1-0.3,0.2-0.5c0.1-0.2,0.1-0.4,0.2-0.6&#10;&#9;&#9;&#9;c0.1-0.2,0.1-0.5,0.2-0.7c0.1-0.3,0.1-0.5,0.1-0.8c0.1-0.3,0-0.6,0-0.9c0-0.3-0.1-0.6-0.1-0.9c-0.1-0.3-0.1-0.6-0.2-0.9&#10;&#9;&#9;&#9;c-0.1-0.3-0.2-0.6-0.3-0.9c-0.2-0.6-0.5-1.1-0.7-1.5C518.8,417.1,518.5,416.5,518.5,416.5z" style="fill: rgb(204, 204, 204); opacity: 1;"/>
		<path class="st10" d="M511.3,414.8c0,0-0.1,0.2-0.2,0.6c-0.1,0.4-0.3,1-0.4,1.7c-0.1,0.4-0.2,0.7-0.2,1.1&#10;&#9;&#9;&#9;c-0.1,0.4-0.1,0.8-0.2,1.3c-0.1,0.4,0,0.9-0.1,1.4c0,0.5,0,0.9,0.1,1.4c0.1,0.5,0.1,0.9,0.2,1.4c0.1,0.2,0.1,0.4,0.2,0.7&#10;&#9;&#9;&#9;c0.1,0.2,0.2,0.4,0.2,0.6c0.1,0.4,0.3,0.8,0.5,1.1c0.1,0.2,0.2,0.3,0.3,0.5c0.1,0.2,0.2,0.3,0.3,0.4c0.2,0.3,0.4,0.6,0.6,0.8&#10;&#9;&#9;&#9;c0.2,0.2,0.4,0.4,0.5,0.6c0.3,0.3,0.4,0.5,0.4,0.5s-0.2-0.1-0.6-0.4c-0.2-0.1-0.4-0.3-0.7-0.4c-0.3-0.2-0.5-0.4-0.8-0.7&#10;&#9;&#9;&#9;c-0.1-0.1-0.3-0.3-0.4-0.4c-0.1-0.2-0.2-0.3-0.4-0.5c-0.3-0.4-0.5-0.7-0.7-1.2c-0.1-0.2-0.2-0.4-0.3-0.7c-0.1-0.2-0.2-0.5-0.2-0.7&#10;&#9;&#9;&#9;c-0.2-0.5-0.2-1-0.3-1.5c-0.1-0.5,0-1-0.1-1.5c0-0.5,0.1-1,0.2-1.4c0.1-0.5,0.2-0.9,0.3-1.3c0.1-0.4,0.3-0.8,0.4-1.1&#10;&#9;&#9;&#9;c0.3-0.7,0.6-1.2,0.8-1.6C511.2,415,511.3,414.8,511.3,414.8z" style="fill: rgb(204, 204, 204); opacity: 1;"/>
		<path class="st10" d="M515.3,416.5c0,0-0.1,0.7-0.2,1.7c-0.1,0.5-0.1,1.1-0.1,1.7c0,0.3,0,0.6,0,0.9c0,0.3,0,0.6,0.1,0.9&#10;&#9;&#9;&#9;c0,0.3,0.1,0.6,0.2,0.9c0.1,0.3,0.1,0.6,0.3,0.9c0.1,0.3,0.2,0.5,0.4,0.8c0.1,0.2,0.2,0.5,0.4,0.6c0.1,0.2,0.3,0.4,0.4,0.5&#10;&#9;&#9;&#9;c0.1,0.1,0.3,0.3,0.4,0.4c0.2,0.2,0.3,0.3,0.3,0.3s-0.2-0.1-0.4-0.2c-0.1-0.1-0.3-0.1-0.5-0.2c-0.2-0.1-0.4-0.3-0.6-0.4&#10;&#9;&#9;&#9;c-0.2-0.2-0.4-0.4-0.6-0.6c-0.2-0.2-0.4-0.5-0.5-0.8c-0.2-0.3-0.3-0.6-0.4-1c-0.1-0.3-0.2-0.7-0.2-1c0-0.4-0.1-0.7,0-1.1&#10;&#9;&#9;&#9;c0-0.3,0-0.7,0.1-1c0.1-0.6,0.3-1.2,0.5-1.7C514.9,417,515.3,416.5,515.3,416.5z" style="fill: rgb(204, 204, 204); opacity: 1;"/>
		<path class="st10" d="M563.6,339.6c0,0-0.4-0.3-0.7-0.8c-0.2-0.3-0.4-0.6-0.5-1c-0.1-0.2-0.1-0.4-0.2-0.6&#10;&#9;&#9;&#9;c-0.1-0.2-0.1-0.4-0.2-0.6c0-0.2,0-0.4-0.1-0.7c0-0.2,0-0.4,0-0.6c0.1-0.4,0.1-0.8,0.2-1.1c0.2-0.6,0.5-1,0.5-1s0.1,0.5,0.1,1.1&#10;&#9;&#9;&#9;c0,0.3,0.1,0.7,0.1,1c0,0.2,0,0.4,0.1,0.6c0,0.2,0.1,0.4,0.1,0.6c0,0.2,0.1,0.4,0.1,0.6c0,0.2,0.1,0.4,0.1,0.6&#10;&#9;&#9;&#9;c0.1,0.4,0.1,0.7,0.2,1C563.5,339.2,563.6,339.6,563.6,339.6z" style="fill: rgb(204, 204, 204); opacity: 1;"/>
		<path class="st10" d="M536.8,349.1c0,0-0.3-0.4-0.7-1.1c-0.3-0.7-0.7-1.6-0.9-2.6c-0.1-0.5-0.2-1-0.2-1.5c0-0.5,0-0.9,0-1.3&#10;&#9;&#9;&#9;c0.1-0.8,0.2-1.2,0.2-1.2s0.2,0.5,0.3,1.2c0.1,0.4,0.2,0.8,0.3,1.2c0.1,0.4,0.2,0.9,0.3,1.4c0.1,0.5,0.2,0.9,0.3,1.4&#10;&#9;&#9;&#9;c0.1,0.4,0.1,0.9,0.2,1.2C536.8,348.6,536.8,349.1,536.8,349.1z" style="fill: rgb(204, 204, 204); opacity: 1;"/>
		<path class="st10" d="M514.1,367.8c0,0-0.4,0.1-1.1,0c-0.3,0-0.7-0.1-1.1-0.2c-0.4-0.1-0.8-0.3-1.2-0.5c-0.4-0.2-0.7-0.5-1-0.8&#10;&#9;&#9;&#9;c-0.3-0.3-0.5-0.7-0.6-1c-0.3-0.6-0.2-1.1-0.2-1.1c0,0,0.1,0.1,0.2,0.2c0.1,0.2,0.3,0.3,0.5,0.5c0.2,0.2,0.5,0.4,0.7,0.6&#10;&#9;&#9;&#9;c0.3,0.2,0.6,0.4,0.9,0.6c0.3,0.2,0.7,0.4,1,0.6c0.3,0.2,0.6,0.4,0.9,0.5C513.8,367.6,514.1,367.8,514.1,367.8z" style="fill: rgb(204, 204, 204); opacity: 1;"/>
		<path class="st10" d="M494.5,391.2c0,0-0.3-0.3-0.7-0.9c-0.4-0.6-0.7-1.4-0.9-2.3c0-0.2-0.1-0.4-0.1-0.7c0-0.2,0-0.4,0-0.6&#10;&#9;&#9;&#9;c0-0.4,0-0.8,0.1-1.2c0.1-0.7,0.3-1.1,0.3-1.1s0.2,0.4,0.3,1.1c0,0.3,0.2,0.7,0.2,1.1c0.1,0.4,0.2,0.8,0.3,1.2&#10;&#9;&#9;&#9;c0.1,0.4,0.2,0.8,0.2,1.2c0.1,0.4,0.1,0.8,0.2,1.1C494.5,390.7,494.5,391.2,494.5,391.2z" style="fill: rgb(204, 204, 204); opacity: 1;"/>
		<path class="st10" d="M522.1,388.8c0,0,0-0.6,0.2-1.4c0.2-0.8,0.7-1.8,1.3-2.8c0.2-0.2,0.3-0.4,0.5-0.7c0.2-0.2,0.4-0.4,0.6-0.6&#10;&#9;&#9;&#9;c0.4-0.4,0.8-0.6,1.2-0.8c0.2-0.1,0.4-0.2,0.5-0.2c0.2-0.1,0.3-0.1,0.4-0.1c0.2,0,0.4,0,0.4,0s-0.1,0.1-0.3,0.2&#10;&#9;&#9;&#9;c-0.2,0.1-0.4,0.4-0.7,0.6c-0.1,0.1-0.3,0.3-0.4,0.4c-0.1,0.2-0.3,0.3-0.5,0.5c-0.3,0.4-0.6,0.8-0.9,1.2c-0.3,0.4-0.6,0.9-0.8,1.3&#10;&#9;&#9;&#9;c-0.3,0.4-0.5,0.8-0.7,1.1C522.5,388.4,522.1,388.8,522.1,388.8z" style="fill: rgb(204, 204, 204); opacity: 1;"/>
		<path class="st10" d="M509,387.8c0,0-0.1-0.5-0.1-1.2c0-0.4,0-0.8,0.2-1.3c0.1-0.5,0.3-0.9,0.4-1.4c0.2-0.5,0.5-0.9,0.8-1.3&#10;&#9;&#9;&#9;c0.3-0.4,0.6-0.7,0.9-0.9c0.3-0.2,0.6-0.4,0.8-0.4c0.2-0.1,0.3-0.1,0.3-0.1s-0.1,0.1-0.2,0.3c-0.1,0.2-0.3,0.4-0.5,0.7&#10;&#9;&#9;&#9;c-0.1,0.1-0.2,0.3-0.3,0.5c-0.1,0.2-0.2,0.4-0.3,0.5c-0.2,0.4-0.4,0.8-0.6,1.2c-0.4,0.8-0.7,1.7-0.9,2.4&#10;&#9;&#9;&#9;C509.2,387.4,509,387.8,509,387.8z" style="fill: rgb(204, 204, 204); opacity: 1;"/>
		<path class="st10" d="M552,377.6c0,0-0.2-0.4-0.2-1.1c0-0.7,0.1-1.5,0.4-2.4c0.1-0.2,0.2-0.4,0.3-0.6c0.1-0.2,0.2-0.4,0.4-0.6&#10;&#9;&#9;&#9;c0.3-0.3,0.6-0.6,0.9-0.8c0.2-0.1,0.3-0.1,0.4-0.2c0.1-0.1,0.3-0.1,0.3-0.1c0.2,0,0.3,0,0.3,0s-0.1,0.1-0.2,0.2&#10;&#9;&#9;&#9;c-0.1,0.1-0.2,0.1-0.2,0.2c-0.1,0.1-0.2,0.2-0.3,0.3c-0.1,0.1-0.2,0.3-0.3,0.4c-0.1,0.2-0.2,0.3-0.3,0.5c-0.2,0.3-0.3,0.7-0.5,1&#10;&#9;&#9;&#9;c-0.3,0.7-0.5,1.5-0.8,2.1C552.2,377.1,552,377.6,552,377.6z" style="fill: rgb(204, 204, 204); opacity: 1;"/>
		<path class="st10" d="M531.1,371.1c0,0-0.2-0.3-0.3-0.9c-0.1-0.5-0.2-1.2-0.1-2c0.1-0.4,0.1-0.7,0.3-1c0.1-0.3,0.3-0.6,0.5-0.8&#10;&#9;&#9;&#9;c0.1-0.1,0.2-0.2,0.3-0.3c0.1-0.1,0.2-0.1,0.3-0.1c0.2-0.1,0.2-0.1,0.2-0.1s0,0.1-0.1,0.2c0,0.1-0.1,0.1-0.1,0.2&#10;&#9;&#9;&#9;c0,0.1-0.1,0.2-0.1,0.3c-0.1,0.5-0.2,1.1-0.3,1.7c-0.1,0.3-0.1,0.6-0.2,1c0,0.3-0.1,0.6-0.2,0.9&#10;&#9;&#9;&#9;C531.2,370.8,531.1,371.1,531.1,371.1z" style="fill: rgb(204, 204, 204); opacity: 1;"/>
		<path class="st10" d="M543.1,362.8c0,0-0.5-0.3-1-1c-0.3-0.3-0.5-0.7-0.7-1.2c-0.2-0.5-0.4-1-0.5-1.6c-0.1-0.6-0.1-1.1,0-1.7&#10;&#9;&#9;&#9;c0-0.3,0.1-0.5,0.2-0.7c0.1-0.2,0.1-0.4,0.2-0.6c0.3-0.8,0.8-1.1,0.8-1.2c0,0,0,0.1-0.1,0.4c0,0.2-0.1,0.6-0.2,0.9&#10;&#9;&#9;&#9;c-0.1,0.4-0.1,0.8-0.1,1.3c0,0.5,0,1,0.1,1.4c0.1,0.5,0.2,1,0.3,1.4c0.1,0.5,0.3,0.9,0.4,1.3C542.9,362.3,543.1,362.8,543.1,362.8&#10;&#9;&#9;&#9;z" style="fill: rgb(204, 204, 204); opacity: 1;"/>
		<path class="st10" d="M569.5,369.3c0,0-0.1-0.1-0.2-0.2c-0.1-0.2-0.3-0.4-0.4-0.7c-0.1-0.2-0.1-0.3-0.2-0.5c0-0.2-0.1-0.4-0.1-0.6&#10;&#9;&#9;&#9;c0-0.2,0-0.4,0-0.7c0-0.2,0-0.5,0.1-0.7c0-0.2,0.1-0.5,0.1-0.7c0.1-0.2,0.2-0.4,0.3-0.6c0.1-0.2,0.2-0.4,0.3-0.5&#10;&#9;&#9;&#9;c0.1-0.2,0.2-0.3,0.4-0.4c0.5-0.5,0.8-0.8,0.8-0.8s-0.1,0.5-0.3,1c0,0.2-0.1,0.3-0.2,0.5c0,0.2-0.1,0.4-0.1,0.5&#10;&#9;&#9;&#9;c-0.1,0.2-0.1,0.4-0.2,0.6c0,0.2-0.1,0.4-0.1,0.6c0,0.2-0.1,0.4-0.1,0.6c0,0.2,0,0.4-0.1,0.6c0,0.2,0,0.4,0,0.5c0,0.2,0,0.3,0,0.5&#10;&#9;&#9;&#9;c0,0.3,0,0.6,0,0.8C569.4,369.2,569.5,369.3,569.5,369.3z" style="fill: rgb(204, 204, 204); opacity: 1;"/>
	</g></svg>