<svg width="173" height="172" viewBox="0 0 173 172" fill="none" xmlns="http://www.w3.org/2000/svg">
<path fill-rule="evenodd" clip-rule="evenodd" d="M172.723 131.428C160.268 123.26 151.808 112.026 147.183 97.5211C144.31 88.5087 139.864 81.0518 133.193 73.9795L131.84 72.5457C127.576 68.0234 124.514 63.6138 121.77 58.0371L114.875 44.0339C113.961 42.1776 112.334 40.9939 110.288 40.6927C108.239 40.3936 106.343 41.0607 104.934 42.5784L101.973 45.7662V62.3613L112.931 89.2668L95.5069 81.9269L59.4586 91.5722L57.9509 160.548L115.291 165.22C118.718 165.499 121.65 165.618 125.089 165.618H130.3C136.271 165.618 141.398 167.208 146.321 170.586L148.38 172C159.365 160.659 167.79 146.826 172.723 131.428Z" fill="#D8D8D8"/>
<path fill-rule="evenodd" clip-rule="evenodd" d="M57.9508 160.548L24.971 151.711C18.8355 150.067 14.7463 144.615 14.885 138.264L14.8957 137.77C14.9571 134.995 16.2835 132.639 18.6249 131.148C20.9647 129.658 23.6628 129.452 26.2017 130.57L27.0661 130.952V126.888L18.661 122.511C14.7116 120.454 12.3541 116.688 12.2852 112.235L12.2784 111.736C12.2256 108.303 13.7701 105.328 16.6072 103.395C19.4445 101.462 22.7783 101.114 25.954 102.418L27.0661 102.875V100.539L14.8061 94.6862C11.8752 93.2877 10.055 90.6306 9.80888 87.3924C9.17505 79.0294 15.7422 72.4411 24.0917 76.1401L27.0661 77.4582V69.5062L3.66718 55.8981C-4.60417 51.0885 2.3947 38.321 12.0023 42.6283L43.2622 56.6389L59.7948 91.8625L87.4534 129.432L57.9508 160.548Z" fill="#D8D8D8"/>
<path d="M33.5325 146.179H95.5061C98.357 146.179 100.973 143.34 100.973 139.501V7.67908C100.973 3.83946 98.3568 1.00037 95.5061 1.00037H33.5325C30.6818 1.00037 28.0657 3.83946 28.0657 7.67908V139.501C28.0657 143.34 30.6816 146.179 33.5325 146.179Z" fill="white" stroke="#CCCCCC" stroke-width="2"/>
<rect x="33" y="23" width="40" height="18" rx="2" fill="#F0F0F0"/>
<rect x="33" y="78" width="40" height="36" rx="2" fill="#F0F0F0"/>
<rect x="56" y="48" width="40" height="23" rx="2" fill="#D8D8D8"/>
<rect x="36" y="27" width="33" height="3" fill="#CCCCCC"/>
<rect x="36" y="82" width="33" height="3" fill="#CCCCCC"/>
<rect x="59" y="52" width="33" height="3" fill="#CCCCCC"/>
<rect x="36" y="32" width="23" height="3" fill="#CCCCCC"/>
<rect x="36" y="87" width="23" height="3" fill="#CCCCCC"/>
<rect x="36" y="92" width="33" height="8" fill="#FFE94D"/>
<rect x="59" y="57" width="23" height="3" fill="#CCCCCC"/>
<path fill-rule="evenodd" clip-rule="evenodd" d="M27.0661 81.2615L34.3613 85.7318C36.5975 87.1023 37.9828 89.1636 38.4069 91.7517C38.8299 94.3414 38.1748 96.7355 36.4918 98.7484C35.7344 99.6557 34.8202 100.38 33.6398 100.861C31.6353 101.678 29.6129 101.651 27.6274 100.784L27.0661 100.539L19.5757 86.9086L19.8073 86.2164L27.0661 81.2615Z" fill="#D8D8D8"/>
<path fill-rule="evenodd" clip-rule="evenodd" d="M24.4282 102.498L31.7218 106.969C33.9589 108.34 35.344 110.401 35.7674 112.99C36.1917 115.577 35.5362 117.973 33.8539 119.986C33.0965 120.891 32.183 121.617 31.0019 122.097C28.9965 122.914 26.9736 122.888 24.9901 122.021L24.4282 121.776L16.9377 108.144L17.1692 107.454L24.4282 102.498Z" fill="#D8D8D8"/>
<path fill-rule="evenodd" clip-rule="evenodd" d="M23.3618 129.873C25.9778 129.686 28.3036 130.557 30.1538 132.418C32.0033 134.277 32.8638 136.606 32.665 139.222C32.576 140.398 32.2549 141.521 31.5738 142.598C30.4168 144.429 28.7573 145.585 26.6379 146.033L26.0385 146.16L16.8164 141.727L23.3618 129.873Z" fill="#D8D8D8"/>
</svg>
