<svg width="605" height="434" viewBox="0 0 605 434" fill="none" xmlns="http://www.w3.org/2000/svg">
<path d="M7.5 7L221.5 7V175H7.5V7Z" fill="#59FF69" fill-opacity="0.2"/>
<rect x="7.5" y="146" width="73" height="112" fill="#8559FF" fill-opacity="0.2"/>
<rect x="7.5" y="258" width="73" height="102" fill="#FF5959" fill-opacity="0.2"/>
<path d="M80.5 175.5H221.5V426H64.5V360.5H80.5V342V175.5Z" fill="#FFB459" fill-opacity="0.2"/>
<rect x="229.5" y="7" width="128" height="129" fill="#FCFF59" fill-opacity="0.2"/>
<rect x="229.5" y="347" width="121" height="79" fill="#59FF69" fill-opacity="0.2"/>
<rect x="494.5" y="132" width="102" height="126" fill="#59FFB7" fill-opacity="0.2"/>
<rect x="365.5" y="8" width="47" height="93" fill="#59FFB7" fill-opacity="0.2"/>
<path d="M365.5 101H412.5V258H391V330H350V339.5H229V197.5H221.5V143.5H365.5V101Z" fill="#999999" fill-opacity="0.2"/>
<path d="M420.5 60H596.5V131H494.5V258H420.5V60Z" fill="#E659FF" fill-opacity="0.2"/>
<path d="M596.5 426.5H357V338H398.5V266H596.5V426.5Z" fill="black" fill-opacity="0.2"/>
</svg>
