<svg width="605" height="434" viewBox="0 0 605 434" fill="none" xmlns="http://www.w3.org/2000/svg">
<path d="M420 7H365V60H358V7H229V60H222V7H7V358.5H64V427H222V197.5H236V204.5H229V236.5H325.5V204H318.5V198.5L317.963 199.344L301.5 188.867L285.037 199.344L283.963 197.656L300.463 187.156L301.5 188.785L302.537 187.156L318.5 197.314V197H332.5V243.5H300V247H293.5V249.415H261.411C261.632 261.487 266.827 268.883 273.258 273.278C279.859 277.79 287.799 279.164 293.092 279.098L293.097 279.5H300V339.5H303.5V346.5H229V427H350V346.5H346.5V339.5H350V330.5H391V309H398V342H391V337.5H357V427H391V423H398V427H598V265.998L398 265.517V269H391V265.5H390.991L391.009 258.5L413 258.553V255H420V258.569L598 258.998V59H452V63H445V59H420V148.5H445V144H452V155.5H420V213.502C426.74 213.419 436.845 215.161 445.282 220.928C453.572 226.594 460.214 236.125 460.49 251.503H460.5V254.503H419.5V251.503H459.489C459.214 236.462 452.74 227.236 444.718 221.753C436.491 216.13 426.6 214.421 420.006 214.503L420 214H413V48H420V48.4775L420.006 48C426.6 48.0824 436.491 46.3729 444.718 40.75C452.74 35.2669 459.214 26.0405 459.489 11H419.5V8H460.5V11H460.49C460.214 26.3783 453.572 35.909 445.282 41.5752C436.845 47.3421 426.74 49.0831 420 49V52H605V434H57V365.5H0V0H420V7ZM346.003 387H343.003V386.989C327.625 386.713 318.094 380.072 312.428 371.782C306.659 363.342 304.919 353.234 305.003 346.494L306.003 346.506C305.921 353.1 307.63 362.991 313.253 371.218C318.736 379.24 327.962 385.714 343.003 385.989V346H346.003V387ZM229 339.5H293V280.097C287.562 280.146 279.464 278.732 272.693 274.104C265.851 269.428 260.402 261.493 260.402 248.609H260.5V247H293V243.5H229V339.5ZM271.537 197.656L270.463 199.344L254 188.867L237.537 199.344L236.463 197.656L252.963 187.156L254 188.785L255.037 187.156L271.537 197.656ZM461.844 124.963L460.214 126L461.844 127.037L451.344 143.537L449.656 142.463L460.132 126L449.656 109.537L451.344 108.463L461.844 124.963ZM365 143H222V102H229V136H358V101.5H365V143ZM461.844 79.9629L460.214 81L461.844 82.0371L451.344 98.5371L449.656 97.4629L460.132 81L449.656 64.5371L451.344 63.4629L461.844 79.9629Z" fill="#CCCCCC" fill-opacity="0.8"/>
</svg>
