<svg width="605" height="434" viewBox="0 0 605 434" fill="none" xmlns="http://www.w3.org/2000/svg">
<path d="M269.5 427H229.5V347H269.5V427ZM279.989 387.984C282.554 380.99 292.446 380.99 295.011 387.984L296.188 391.193C297.717 395.365 298.5 399.774 298.5 404.217C298.5 406.306 296.806 408 294.717 408H293.5V410C297.918 410 301.5 413.582 301.5 418V425C301.5 426.105 300.605 427 299.5 427H275.5C274.395 427 273.5 426.105 273.5 425V418C273.5 413.582 277.082 410 281.5 410V408H280.283C278.194 408 276.5 406.306 276.5 404.217C276.5 399.774 277.283 395.365 278.812 391.193L279.989 387.984ZM350.5 427H305.5V398H350.5V427ZM100.5 360C117.069 360 130.5 373.431 130.5 390V396C130.5 412.569 117.069 426 100.5 426H94.5C77.9315 426 64.5 412.569 64.5 396V390C64.5 373.431 77.9315 360 94.5 360H100.5ZM203.5 426H131.5V408H203.5V426ZM33.5 343H15.5V325H33.5V343ZM203.5 335H131.5V299H203.5V335ZM33.5 324H15.5V292H33.5V324ZM121.5 281H113.5V249H121.5V281ZM166.5 281H122.5V249H166.5V281ZM211.5 281H167.5V249H211.5V281ZM220.5 281H212.5V249H220.5V281ZM50.5 255H8.5V155H50.5V255ZM166.5 248H113.5V236H166.5V248ZM220.5 248H167.5V236H220.5V248ZM596.5 237H564.5V165H596.5V237ZM181.5 235H107.5V201H181.5V235ZM220.5 235H197.5V197H220.5V235ZM70.5 220H57.5V217H70.5V220ZM69.5 216H51.5V198H69.5V216ZM76.5 216H70.5V198H76.5V216ZM554.5 214H541.5V211H554.5V214ZM541.5 210H535.5V192H541.5V210ZM560.5 210H542.5V192H560.5V210ZM70.5 197H57.5V194H70.5V197ZM554.5 191H541.5V188H554.5V191ZM118.5 175H100.5V169H118.5V175ZM118.5 168H100.5V150H118.5V168ZM596.5 164H524.5V132H596.5V164ZM130.5 146H88.5V74H130.5V146ZM319.5 104H357.5V136H229.5V104H279.5V101H319.5V104ZM65.5 135H59.5V117H65.5V135ZM84.5 135H66.5V117H84.5V135ZM152.5 135H134.5V117H152.5V135ZM159.5 135H153.5V117H159.5V135ZM596.5 131H494.5V60H596.5V131ZM24.5 58H17.5V106H24.5V108H8.5V106H15.5V58H8.5V56H24.5V58ZM65.5 103H59.5V85H65.5V103ZM84.5 103H66.5V85H84.5V103ZM152.5 103H134.5V85H152.5V103ZM159.5 103H153.5V85H159.5V103ZM118.5 70H100.5V52H118.5V70ZM220.5 56H200.5V8H220.5V56ZM357.5 40H269.5V56H229.5V8H357.5V40ZM118.5 51H100.5V45H118.5V51ZM379.5 48H365.5V8H379.5V48ZM199.5 32H147.5V8H199.5V32ZM146.5 24H27.5V8H146.5V24Z" fill="#F5F5F5"/>
</svg>
